<?xml version="1.0" encoding="iso-8859-1"?>
<!-- Generator: Adobe Illustrator 19.0.0, SVG Export Plug-In . SVG Version: 6.00 Build 0)  -->
<svg version="1.1" id="Layer_1" xmlns="http://www.w3.org/2000/svg" xmlns:xlink="http://www.w3.org/1999/xlink" x="0px" y="0px"
	 viewBox="0 0 503.497 503.497" style="enable-background:new 0 0 503.497 503.497;" xml:space="preserve">
<g>
	<path style="fill:#06623b;" d="M373.24,17.443c-60.746,0-102.287,29.175-121.492,78.102
		c-19.204-48.926-60.746-78.102-121.492-78.102c-130.169,0-173.559,156.203-80.41,259.688
		c33.063,36.734,193.206,200.079,201.902,208.922c8.695-8.843,168.839-172.188,201.902-208.922
		C546.799,173.647,503.409,17.443,373.24,17.443"/>
	<path style="fill:#FFF;" d="M395.749,269.104l-49.603-90.936c-1.527-2.803-4.408-4.148-7.68-4.521
		c-3.202,0.026-6.127,1.805-7.619,4.634l-79.412,150.788l-61.579-107.668c-1.493-2.603-4.226-4.261-7.237-4.365
		c-3.046-0.191-5.849,1.362-7.515,3.862l-32.134,48.206H43.05c2.204,2.699,4.426,5.398,6.795,8.027
		c2.274,2.525,5.198,5.701,8.583,9.329h89.183c2.907,0,5.615-1.449,7.22-3.862l26.928-40.396l62.455,109.204
		c1.545,2.699,4.426,4.365,7.532,4.365h0.156c3.167-0.052,6.049-1.831,7.524-4.634l79.238-150.441l44.31,81.243
		c1.527,2.786,4.452,4.521,7.619,4.521h54.48c3.376-3.627,6.3-6.804,8.574-9.329c2.378-2.629,4.599-5.328,6.795-8.027H395.749z"/>
</g>
<g>
</g>
<g>
</g>
<g>
</g>
<g>
</g>
<g>
</g>
<g>
</g>
<g>
</g>
<g>
</g>
<g>
</g>
<g>
</g>
<g>
</g>
<g>
</g>
<g>
</g>
<g>
</g>
<g>
</g>
</svg>
